<?xml version="1.0" standalone="no"?>
<svg xmlns:xlink="http://www.w3.org/1999/xlink" id="wave" style="transform:rotate(180deg); transition: 0.3s" viewBox="0 0 1440 270" version="1.1" xmlns="http://www.w3.org/2000/svg"><defs><linearGradient id="sw-gradient-0" x1="0" x2="0" y1="1" y2="0"><stop stop-color="rgba(0.318, 2.984, 6.893, 1)" offset="0%"/><stop stop-color="rgba(10, 25, 47, 1)" offset="100%"/></linearGradient></defs><path style="transform:translate(0, 0px); opacity:1" fill="url(#sw-gradient-0)" d="M0,54L60,63C120,72,240,90,360,81C480,72,600,36,720,22.5C840,9,960,18,1080,54C1200,90,1320,153,1440,180C1560,207,1680,198,1800,171C1920,144,2040,99,2160,72C2280,45,2400,36,2520,54C2640,72,2760,117,2880,117C3000,117,3120,72,3240,63C3360,54,3480,81,3600,112.5C3720,144,3840,180,3960,171C4080,162,4200,108,4320,81C4440,54,4560,54,4680,54C4800,54,4920,54,5040,49.5C5160,45,5280,36,5400,58.5C5520,81,5640,135,5760,139.5C5880,144,6000,99,6120,103.5C6240,108,6360,162,6480,157.5C6600,153,6720,90,6840,72C6960,54,7080,81,7200,76.5C7320,72,7440,36,7560,49.5C7680,63,7800,126,7920,135C8040,144,8160,99,8280,94.5C8400,90,8520,126,8580,144L8640,162L8640,270L8580,270C8520,270,8400,270,8280,270C8160,270,8040,270,7920,270C7800,270,7680,270,7560,270C7440,270,7320,270,7200,270C7080,270,6960,270,6840,270C6720,270,6600,270,6480,270C6360,270,6240,270,6120,270C6000,270,5880,270,5760,270C5640,270,5520,270,5400,270C5280,270,5160,270,5040,270C4920,270,4800,270,4680,270C4560,270,4440,270,4320,270C4200,270,4080,270,3960,270C3840,270,3720,270,3600,270C3480,270,3360,270,3240,270C3120,270,3000,270,2880,270C2760,270,2640,270,2520,270C2400,270,2280,270,2160,270C2040,270,1920,270,1800,270C1680,270,1560,270,1440,270C1320,270,1200,270,1080,270C960,270,840,270,720,270C600,270,480,270,360,270C240,270,120,270,60,270L0,270Z"/></svg>