<?xml version="1.0" standalone="no"?>
<svg xmlns:xlink="http://www.w3.org/1999/xlink" id="wave" style="transform:rotate(0deg); transition: 0.3s" viewBox="0 0 1440 180" version="1.1" xmlns="http://www.w3.org/2000/svg"><defs><linearGradient id="sw-gradient-0" x1="0" x2="0" y1="1" y2="0"><stop stop-color="rgba(0.318, 2.984, 6.893, 1)" offset="0%"/><stop stop-color="rgba(10, 25, 47, 1)" offset="100%"/></linearGradient></defs><path style="transform:translate(0, 0px); opacity:1" fill="url(#sw-gradient-0)" d="M0,36L60,42C120,48,240,60,360,54C480,48,600,24,720,15C840,6,960,12,1080,36C1200,60,1320,102,1440,120C1560,138,1680,132,1800,114C1920,96,2040,66,2160,48C2280,30,2400,24,2520,36C2640,48,2760,78,2880,78C3000,78,3120,48,3240,42C3360,36,3480,54,3600,75C3720,96,3840,120,3960,114C4080,108,4200,72,4320,54C4440,36,4560,36,4680,36C4800,36,4920,36,5040,33C5160,30,5280,24,5400,39C5520,54,5640,90,5760,93C5880,96,6000,66,6120,69C6240,72,6360,108,6480,105C6600,102,6720,60,6840,48C6960,36,7080,54,7200,51C7320,48,7440,24,7560,33C7680,42,7800,84,7920,90C8040,96,8160,66,8280,63C8400,60,8520,84,8580,96L8640,108L8640,180L8580,180C8520,180,8400,180,8280,180C8160,180,8040,180,7920,180C7800,180,7680,180,7560,180C7440,180,7320,180,7200,180C7080,180,6960,180,6840,180C6720,180,6600,180,6480,180C6360,180,6240,180,6120,180C6000,180,5880,180,5760,180C5640,180,5520,180,5400,180C5280,180,5160,180,5040,180C4920,180,4800,180,4680,180C4560,180,4440,180,4320,180C4200,180,4080,180,3960,180C3840,180,3720,180,3600,180C3480,180,3360,180,3240,180C3120,180,3000,180,2880,180C2760,180,2640,180,2520,180C2400,180,2280,180,2160,180C2040,180,1920,180,1800,180C1680,180,1560,180,1440,180C1320,180,1200,180,1080,180C960,180,840,180,720,180C600,180,480,180,360,180C240,180,120,180,60,180L0,180Z"/></svg>